<mxfile host="Electron" modified="2025-01-09T11:53:45.088Z" agent="Mozilla/5.0 (X11; Linux x86_64) AppleWebKit/537.36 (KHTML, like Gecko) draw.io/21.6.5 Chrome/114.0.5735.243 Electron/25.3.1 Safari/537.36" etag="ArhDTSS3oymfnv5tUk-P" version="21.6.5" type="device">
  <diagram name="第 1 页" id="FqIYc_zt7q6oJe4R-_Ym">
    <mxGraphModel dx="3341" dy="1034" grid="1" gridSize="10" guides="1" tooltips="1" connect="1" arrows="1" fold="1" page="1" pageScale="1" pageWidth="827" pageHeight="1169" math="0" shadow="0">
      <root>
        <mxCell id="0" />
        <mxCell id="1" parent="0" />
        <mxCell id="ArM1LGA4sBmxIhtIo9-b-1" value="&lt;h1 style=&quot;font-size: 16px;&quot;&gt;&lt;font style=&quot;font-size: 16px;&quot;&gt;Seata ConfigurationFactory 配置中心适配器 (v2.0.0)&lt;/font&gt;&lt;/h1&gt;&lt;div&gt;&lt;br&gt;&lt;br&gt;&lt;/div&gt;&lt;p&gt;&lt;/p&gt;" style="text;html=1;strokeColor=none;fillColor=none;spacing=5;spacingTop=-20;whiteSpace=wrap;overflow=hidden;rounded=0;" vertex="1" parent="1">
          <mxGeometry x="40" y="10" width="620" height="70" as="geometry" />
        </mxCell>
        <mxCell id="ArM1LGA4sBmxIhtIo9-b-4" value="" style="edgeStyle=orthogonalEdgeStyle;rounded=1;orthogonalLoop=1;jettySize=auto;html=1;" edge="1" parent="1" source="ArM1LGA4sBmxIhtIo9-b-2" target="ArM1LGA4sBmxIhtIo9-b-3">
          <mxGeometry relative="1" as="geometry" />
        </mxCell>
        <mxCell id="ArM1LGA4sBmxIhtIo9-b-2" value="ConfigurationFactory#getInstance()" style="rounded=1;whiteSpace=wrap;html=1;fillColor=#dae8fc;strokeColor=#6c8ebf;" vertex="1" parent="1">
          <mxGeometry x="40" y="400" width="200" height="60" as="geometry" />
        </mxCell>
        <mxCell id="ArM1LGA4sBmxIhtIo9-b-35" value="" style="edgeStyle=orthogonalEdgeStyle;rounded=1;orthogonalLoop=1;jettySize=auto;html=1;fontSize=11;" edge="1" parent="1" source="ArM1LGA4sBmxIhtIo9-b-3" target="ArM1LGA4sBmxIhtIo9-b-34">
          <mxGeometry relative="1" as="geometry" />
        </mxCell>
        <mxCell id="ArM1LGA4sBmxIhtIo9-b-3" value="双重检查锁发现instance为null 则&lt;br style=&quot;font-size: 11px;&quot;&gt;instance = buildConfiguration();" style="rounded=1;whiteSpace=wrap;html=1;fontSize=11;" vertex="1" parent="1">
          <mxGeometry x="280" y="400" width="200" height="60" as="geometry" />
        </mxCell>
        <mxCell id="ArM1LGA4sBmxIhtIo9-b-7" value="" style="edgeStyle=orthogonalEdgeStyle;rounded=1;orthogonalLoop=1;jettySize=auto;html=1;" edge="1" parent="1" source="ArM1LGA4sBmxIhtIo9-b-5" target="ArM1LGA4sBmxIhtIo9-b-6">
          <mxGeometry relative="1" as="geometry" />
        </mxCell>
        <mxCell id="ArM1LGA4sBmxIhtIo9-b-5" value="ConfigurationFactory 静态初始化&lt;br&gt;&lt;font color=&quot;#007fff&quot;&gt;这里做的事都是为了支持File类型配置&lt;/font&gt;" style="rounded=1;whiteSpace=wrap;html=1;fillColor=#dae8fc;strokeColor=#6c8ebf;" vertex="1" parent="1">
          <mxGeometry x="40" y="120" width="200" height="60" as="geometry" />
        </mxCell>
        <mxCell id="ArM1LGA4sBmxIhtIo9-b-10" value="" style="edgeStyle=orthogonalEdgeStyle;rounded=1;orthogonalLoop=1;jettySize=auto;html=1;" edge="1" parent="1" source="ArM1LGA4sBmxIhtIo9-b-6" target="ArM1LGA4sBmxIhtIo9-b-9">
          <mxGeometry relative="1" as="geometry" />
        </mxCell>
        <mxCell id="ArM1LGA4sBmxIhtIo9-b-6" value="&lt;div style=&quot;font-size: 11px;&quot;&gt;static {&lt;/div&gt;&lt;div style=&quot;font-size: 11px;&quot;&gt;&amp;nbsp;&lt;font color=&quot;#007fff&quot;&gt; &amp;nbsp; // 原始使用文件作为配置中心，读取系统属性、环境变量等创建对应文件配置中心实例；&lt;/font&gt;&lt;/div&gt;&lt;font color=&quot;#007fff&quot;&gt;seata.config.name 或 registry 属性指定的文件, 加上 seataEnv 指定的后缀&lt;/font&gt;&lt;div style=&quot;font-size: 11px;&quot;&gt;&amp;nbsp; &amp;nbsp; initOriginConfiguraction();&lt;/div&gt;&lt;div style=&quot;font-size: 11px;&quot;&gt;&lt;font color=&quot;#007fff&quot;&gt;&amp;nbsp; &amp;nbsp; // 这步加载拓展配置实例，&lt;/font&gt;&lt;/div&gt;&lt;div style=&quot;font-size: 11px;&quot;&gt;&amp;nbsp; &amp;nbsp; &lt;b&gt;load&lt;/b&gt;();&lt;/div&gt;&lt;div style=&quot;font-size: 11px;&quot;&gt;&lt;font color=&quot;#007fff&quot;&gt;&amp;nbsp; &amp;nbsp; //&amp;nbsp;config.file.name 指定的配置文件生成的配置中心实例&lt;/font&gt;&lt;/div&gt;&lt;div style=&quot;font-size: 11px;&quot;&gt;&amp;nbsp; &amp;nbsp; maybeNeedOriginFileInstance();&lt;/div&gt;&lt;div style=&quot;font-size: 11px;&quot;&gt;}&lt;/div&gt;" style="rounded=1;whiteSpace=wrap;html=1;align=left;arcSize=4;fontSize=11;" vertex="1" parent="1">
          <mxGeometry x="280" y="120" width="440" height="160" as="geometry" />
        </mxCell>
        <mxCell id="ArM1LGA4sBmxIhtIo9-b-8" value="&lt;p style=&quot;margin: 4px 0px 0px; text-align: center; font-size: 11px;&quot;&gt;&lt;b style=&quot;font-size: 11px;&quot;&gt;ConfigurationFactory&lt;/b&gt;&lt;br style=&quot;font-size: 11px;&quot;&gt;&lt;/p&gt;&lt;hr style=&quot;font-size: 11px;&quot;&gt;&lt;p style=&quot;margin: 0px 0px 0px 4px; font-size: 11px;&quot;&gt;&lt;b&gt;&lt;font color=&quot;#007fff&quot;&gt;配置中心工厂，单例模式&lt;/font&gt;&lt;/b&gt;&lt;/p&gt;&lt;p style=&quot;margin: 0px 0px 0px 4px; font-size: 11px;&quot;&gt;&lt;br&gt;&lt;/p&gt;&lt;p style=&quot;margin: 0px 0px 0px 4px; font-size: 11px;&quot;&gt;private static final String REGISTRY_CONF_DEFAULT = &quot;registry&quot;;&lt;/p&gt;&lt;p style=&quot;margin: 0px 0px 0px 4px; font-size: 11px;&quot;&gt;private static final String ENV_SYSTEM_KEY = &quot;SEATA_ENV&quot;;&lt;/p&gt;&lt;p style=&quot;margin: 0px 0px 0px 4px; font-size: 11px;&quot;&gt;public static final String ENV_PROPERTY_KEY = &quot;seataEnv&quot;;&lt;/p&gt;&lt;p style=&quot;margin: 0px 0px 0px 4px; font-size: 11px;&quot;&gt;private static final String SYSTEM_PROPERTY_SEATA_CONFIG_NAME = &quot;seata.config.name&quot;;&lt;/p&gt;&lt;p style=&quot;margin: 0px 0px 0px 4px; font-size: 11px;&quot;&gt;private static final String ENV_SEATA_CONFIG_NAME = &quot;SEATA_CONFIG_NAME&quot;;&lt;/p&gt;&lt;p style=&quot;margin: 0px 0px 0px 4px; font-size: 11px;&quot;&gt;&lt;br&gt;&lt;/p&gt;&lt;p style=&quot;margin: 0px 0px 0px 4px; font-size: 11px;&quot;&gt;&lt;font color=&quot;#007fff&quot;&gt;// 优先使用加载的拓展配置中心实例，不存在则使用&amp;nbsp;ORIGIN_FILE_INSTANCE_REGISTRY&lt;/font&gt;&lt;/p&gt;&lt;p style=&quot;margin: 0px 0px 0px 4px; font-size: 11px;&quot;&gt;public static volatile Configuration &lt;b&gt;CURRENT_FILE_INSTANCE&lt;/b&gt;;&lt;/p&gt;&lt;p style=&quot;margin: 0px 0px 0px 4px; font-size: 11px;&quot;&gt;&lt;font color=&quot;#007fff&quot;&gt;// 原始的基于文件实现的配置中心实例 （seata.config.name 或 registry 属性指定的文件, 加上 seataEnv 指定的后缀）&lt;/font&gt;&lt;/p&gt;&lt;p style=&quot;margin: 0px 0px 0px 4px; font-size: 11px;&quot;&gt;public static volatile FileConfiguration &lt;b&gt;ORIGIN_FILE_INSTANCE_REGISTRY&lt;/b&gt;;&lt;/p&gt;&lt;p style=&quot;margin: 0px 0px 0px 4px; font-size: 11px;&quot;&gt;&lt;font color=&quot;#007fff&quot;&gt;// 从 CURRENT_FILE_INSTANCE读取的&amp;nbsp;&lt;/font&gt;&lt;font color=&quot;#007fff&quot;&gt;config.file.name 指定的配置文件生成的配置中心实例&lt;/font&gt;&lt;/p&gt;&lt;p style=&quot;margin: 0px 0px 0px 4px; font-size: 11px;&quot;&gt;public static volatile FileConfiguration &lt;b&gt;ORIGIN_FILE_INSTANCE&lt;/b&gt; = null;&lt;/p&gt;&lt;p style=&quot;margin: 0px 0px 0px 4px;&quot;&gt;private static final String NAME_KEY = &quot;name&quot;;&lt;/p&gt;&lt;p style=&quot;margin: 0px 0px 0px 4px;&quot;&gt;private static final String FILE_TYPE = &quot;file&quot;;&lt;/p&gt;&lt;p style=&quot;margin: 0px 0px 0px 4px;&quot;&gt;&lt;span style=&quot;background-color: initial;&quot;&gt;&lt;br&gt;&lt;/span&gt;&lt;/p&gt;&lt;p style=&quot;margin: 0px 0px 0px 4px;&quot;&gt;&lt;span style=&quot;background-color: initial;&quot;&gt;&lt;b&gt;&lt;font color=&quot;#007fff&quot;&gt;// Seata配置中心最终实际使用的实例&lt;/font&gt;&lt;/b&gt;&lt;/span&gt;&lt;/p&gt;&lt;p style=&quot;margin: 0px 0px 0px 4px;&quot;&gt;&lt;span style=&quot;background-color: initial;&quot;&gt;private static volatile &lt;b&gt;Configuration&lt;/b&gt; &lt;b&gt;instance&lt;/b&gt; = null;&lt;/span&gt;&lt;br&gt;&lt;/p&gt;&lt;hr style=&quot;font-size: 11px;&quot;&gt;&lt;p style=&quot;margin: 0px 0px 0px 4px; font-size: 11px;&quot;&gt;&lt;br&gt;&lt;/p&gt;" style="verticalAlign=top;align=left;overflow=fill;fontSize=11;fontFamily=Helvetica;html=1;whiteSpace=wrap;" vertex="1" parent="1">
          <mxGeometry x="-520" y="120" width="480" height="320" as="geometry" />
        </mxCell>
        <mxCell id="ArM1LGA4sBmxIhtIo9-b-22" value="" style="edgeStyle=orthogonalEdgeStyle;rounded=1;orthogonalLoop=1;jettySize=auto;html=1;" edge="1" parent="1" source="ArM1LGA4sBmxIhtIo9-b-9" target="ArM1LGA4sBmxIhtIo9-b-21">
          <mxGeometry relative="1" as="geometry" />
        </mxCell>
        <mxCell id="ArM1LGA4sBmxIhtIo9-b-32" style="edgeStyle=orthogonalEdgeStyle;rounded=1;orthogonalLoop=1;jettySize=auto;html=1;exitX=1;exitY=0.5;exitDx=0;exitDy=0;entryX=0;entryY=0.5;entryDx=0;entryDy=0;" edge="1" parent="1" source="ArM1LGA4sBmxIhtIo9-b-9" target="ArM1LGA4sBmxIhtIo9-b-29">
          <mxGeometry relative="1" as="geometry" />
        </mxCell>
        <mxCell id="ArM1LGA4sBmxIhtIo9-b-9" value="&lt;div style=&quot;&quot;&gt;Configuration configuration = ORIGIN_FILE_INSTANCE_REGISTRY;&lt;br&gt;&lt;/div&gt;&lt;div style=&quot;&quot;&gt;extConfiguration = &lt;b&gt;EnhancedServiceLoader&lt;/b&gt;.&lt;b&gt;load&lt;/b&gt;(&lt;b&gt;ExtConfigurationProvider&lt;/b&gt;.class)&lt;br&gt;&amp;nbsp; &amp;nbsp; .&lt;b&gt;provide&lt;/b&gt;(&lt;b&gt;configuration&lt;/b&gt;);&lt;br&gt;&lt;/div&gt;&lt;div style=&quot;&quot;&gt;&lt;b&gt;CURRENT_FILE_INSTANCE&lt;/b&gt; = extConfiguration == null ? configuration : extConfiguration;&lt;br&gt;&lt;/div&gt;" style="rounded=1;whiteSpace=wrap;html=1;align=left;arcSize=10;fontSize=11;" vertex="1" parent="1">
          <mxGeometry x="760" y="150" width="440" height="100" as="geometry" />
        </mxCell>
        <mxCell id="ArM1LGA4sBmxIhtIo9-b-11" value="&lt;p style=&quot;margin: 4px 0px 0px; text-align: center;&quot;&gt;&lt;b&gt;Configuration&lt;/b&gt;&lt;br style=&quot;font-size: 11px;&quot;&gt;&lt;/p&gt;&lt;hr style=&quot;font-size: 11px;&quot;&gt;&lt;p style=&quot;margin: 0px 0px 0px 4px; font-size: 11px;&quot;&gt;&lt;b&gt;&lt;font color=&quot;#007fff&quot;&gt;这个接口其实就是适配器接口&lt;/font&gt;&lt;/b&gt;&lt;/p&gt;&lt;p style=&quot;margin: 0px 0px 0px 4px; font-size: 11px;&quot;&gt;&lt;br&gt;&lt;/p&gt;&lt;p style=&quot;margin: 0px 0px 0px 4px;&quot;&gt;Map&amp;lt;String, String&amp;gt; &lt;b&gt;ENV_MAP&lt;/b&gt; = System.getenv();&lt;br&gt;&lt;/p&gt;&lt;p style=&quot;margin: 0px 0px 0px 4px; font-size: 11px;&quot;&gt;&lt;br&gt;&lt;/p&gt;" style="verticalAlign=top;align=left;overflow=fill;fontSize=11;fontFamily=Helvetica;html=1;whiteSpace=wrap;fillColor=#d5e8d4;strokeColor=#82b366;" vertex="1" parent="1">
          <mxGeometry x="-1040" y="400" width="480" height="80" as="geometry" />
        </mxCell>
        <mxCell id="ArM1LGA4sBmxIhtIo9-b-17" style="edgeStyle=orthogonalEdgeStyle;rounded=1;orthogonalLoop=1;jettySize=auto;html=1;exitX=0.5;exitY=0;exitDx=0;exitDy=0;entryX=0.5;entryY=1;entryDx=0;entryDy=0;endArrow=block;endFill=1;dashed=1;" edge="1" parent="1" source="ArM1LGA4sBmxIhtIo9-b-15" target="ArM1LGA4sBmxIhtIo9-b-11">
          <mxGeometry relative="1" as="geometry" />
        </mxCell>
        <mxCell id="ArM1LGA4sBmxIhtIo9-b-15" value="&lt;p style=&quot;margin: 4px 0px 0px; text-align: center;&quot;&gt;&lt;b&gt;AbstractConfiguration&lt;/b&gt;&lt;br style=&quot;font-size: 11px;&quot;&gt;&lt;/p&gt;&lt;hr style=&quot;font-size: 11px;&quot;&gt;&lt;p style=&quot;margin: 0px 0px 0px 4px; font-size: 11px;&quot;&gt;&lt;br&gt;&lt;/p&gt;&lt;p style=&quot;margin: 0px 0px 0px 4px;&quot;&gt;protected static final long DEFAULT_CONFIG_TIMEOUT = 5 * 1000;&lt;/p&gt;&lt;p style=&quot;margin: 0px 0px 0px 4px;&quot;&gt;public static final short DEFAULT_SHORT = (short)0;&lt;/p&gt;&lt;p style=&quot;margin: 0px 0px 0px 4px;&quot;&gt;public static final int DEFAULT_INT = 0;&lt;/p&gt;&lt;p style=&quot;margin: 0px 0px 0px 4px;&quot;&gt;public static final long DEFAULT_LONG = 0L;&lt;/p&gt;&lt;p style=&quot;margin: 0px 0px 0px 4px;&quot;&gt;public static final Duration DEFAULT_DURATION = Duration.ZERO;&lt;/p&gt;&lt;p style=&quot;margin: 0px 0px 0px 4px;&quot;&gt;public static final boolean DEFAULT_BOOLEAN = false;&lt;/p&gt;&lt;hr style=&quot;font-size: 11px;&quot;&gt;&lt;p style=&quot;margin: 0px 0px 0px 4px; font-size: 11px;&quot;&gt;&lt;br&gt;&lt;/p&gt;" style="verticalAlign=top;align=left;overflow=fill;fontSize=11;fontFamily=Helvetica;html=1;whiteSpace=wrap;" vertex="1" parent="1">
          <mxGeometry x="-1040" y="520" width="480" height="160" as="geometry" />
        </mxCell>
        <mxCell id="ArM1LGA4sBmxIhtIo9-b-18" style="edgeStyle=orthogonalEdgeStyle;rounded=1;orthogonalLoop=1;jettySize=auto;html=1;exitX=0.5;exitY=0;exitDx=0;exitDy=0;endArrow=block;endFill=1;" edge="1" parent="1" source="ArM1LGA4sBmxIhtIo9-b-16" target="ArM1LGA4sBmxIhtIo9-b-15">
          <mxGeometry relative="1" as="geometry" />
        </mxCell>
        <mxCell id="ArM1LGA4sBmxIhtIo9-b-16" value="&lt;p style=&quot;margin: 4px 0px 0px; text-align: center;&quot;&gt;&lt;b&gt;NacosConfiguration&lt;/b&gt;&lt;br style=&quot;font-size: 11px;&quot;&gt;&lt;/p&gt;&lt;hr style=&quot;font-size: 11px;&quot;&gt;&lt;p style=&quot;margin: 0px 0px 0px 4px; font-size: 11px;&quot;&gt;&lt;b&gt;&lt;font color=&quot;#007fff&quot;&gt;Nacos 配置，单例模式&lt;/font&gt;&lt;/b&gt;&lt;/p&gt;&lt;p style=&quot;margin: 0px 0px 0px 4px; font-size: 11px;&quot;&gt;&lt;br&gt;&lt;/p&gt;&lt;p style=&quot;margin: 0px 0px 0px 4px;&quot;&gt;private static volatile NacosConfiguration &lt;b&gt;instance&lt;/b&gt;;&lt;/p&gt;&lt;p style=&quot;margin: 0px 0px 0px 4px;&quot;&gt;&lt;br&gt;&lt;/p&gt;&lt;p style=&quot;margin: 0px 0px 0px 4px;&quot;&gt;private static final String DEFAULT_GROUP = &quot;SEATA_GROUP&quot;;&lt;/p&gt;&lt;p style=&quot;margin: 0px 0px 0px 4px;&quot;&gt;private static final String DEFAULT_DATA_ID = &quot;seata.properties&quot;;&lt;/p&gt;&lt;p style=&quot;margin: 0px 0px 0px 4px;&quot;&gt;private static final String GROUP_KEY = &quot;group&quot;;&lt;/p&gt;&lt;p style=&quot;margin: 0px 0px 0px 4px;&quot;&gt;private static final String PRO_SERVER_ADDR_KEY = &quot;serverAddr&quot;;&lt;/p&gt;&lt;p style=&quot;margin: 0px 0px 0px 4px;&quot;&gt;private static final String NACOS_DATA_ID_KEY = &quot;dataId&quot;;&lt;/p&gt;&lt;p style=&quot;margin: 0px 0px 0px 4px;&quot;&gt;private static final String CONFIG_TYPE = &quot;nacos&quot;;&lt;/p&gt;&lt;p style=&quot;margin: 0px 0px 0px 4px;&quot;&gt;private static final String DEFAULT_NAMESPACE = &quot;&quot;;&lt;/p&gt;&lt;p style=&quot;margin: 0px 0px 0px 4px;&quot;&gt;private static final String PRO_NAMESPACE_KEY = &quot;namespace&quot;;&lt;/p&gt;&lt;p style=&quot;margin: 0px 0px 0px 4px;&quot;&gt;private static final String USER_NAME = &quot;username&quot;;&lt;/p&gt;&lt;p style=&quot;margin: 0px 0px 0px 4px;&quot;&gt;private static final String PASSWORD = &quot;password&quot;;&lt;/p&gt;&lt;p style=&quot;margin: 0px 0px 0px 4px;&quot;&gt;private static final String ACCESS_KEY = &quot;accessKey&quot;;&lt;/p&gt;&lt;p style=&quot;margin: 0px 0px 0px 4px;&quot;&gt;private static final String SECRET_KEY = &quot;secretKey&quot;;&lt;/p&gt;&lt;p style=&quot;margin: 0px 0px 0px 4px;&quot;&gt;private static final String USE_PARSE_RULE = &quot;false&quot;;&lt;/p&gt;&lt;p style=&quot;margin: 0px 0px 0px 4px;&quot;&gt;private static final String CONTEXT_PATH = &quot;contextPath&quot;;&lt;/p&gt;&lt;p style=&quot;margin: 0px 0px 0px 4px;&quot;&gt;private static final Configuration &lt;b&gt;FILE_CONFIG&lt;/b&gt; = &lt;br&gt;&amp;nbsp; &amp;nbsp; ConfigurationFactory.CURRENT_FILE_INSTANCE;&lt;/p&gt;&lt;p style=&quot;margin: 0px 0px 0px 4px;&quot;&gt;&lt;font color=&quot;#007fff&quot;&gt;&lt;b&gt;// Nacos配置服务接口&lt;/b&gt;&lt;/font&gt;&lt;/p&gt;&lt;p style=&quot;margin: 0px 0px 0px 4px;&quot;&gt;private static volatile &lt;b&gt;ConfigService&lt;/b&gt; &lt;b&gt;configService&lt;/b&gt;;&lt;/p&gt;&lt;p style=&quot;margin: 0px 0px 0px 4px;&quot;&gt;private static final int MAP_INITIAL_CAPACITY = 8;&lt;/p&gt;&lt;p style=&quot;margin: 0px 0px 0px 4px;&quot;&gt;&lt;font color=&quot;#007fff&quot;&gt;&lt;b&gt;// 一组监听配置变更的监听器&lt;/b&gt;&lt;/font&gt;&lt;/p&gt;&lt;p style=&quot;margin: 0px 0px 0px 4px;&quot;&gt;private static final ConcurrentMap&amp;lt;String, ConcurrentMap&amp;lt;ConfigurationChangeListener, &lt;br&gt;&amp;nbsp; &amp;nbsp; NacosListener&amp;gt;&amp;gt; &lt;b&gt;CONFIG_LISTENERS_MAP&lt;/b&gt;&amp;nbsp;&lt;span style=&quot;background-color: initial;&quot;&gt;= new ConcurrentHashMap&amp;lt;&amp;gt;&lt;br&gt;&amp;nbsp; &amp;nbsp; (MAP_INITIAL_CAPACITY);&lt;/span&gt;&lt;/p&gt;&lt;p style=&quot;margin: 0px 0px 0px 4px;&quot;&gt;&lt;span style=&quot;background-color: initial;&quot;&gt;&lt;font color=&quot;#007fff&quot;&gt;&lt;b&gt;// 其实是缓存&lt;/b&gt;&lt;/font&gt;&lt;/span&gt;&lt;/p&gt;&lt;p style=&quot;margin: 0px 0px 0px 4px;&quot;&gt;private static volatile Properties &lt;b&gt;seataConfig&lt;/b&gt; = new Properties();&lt;/p&gt;&lt;hr style=&quot;font-size: 11px;&quot;&gt;&lt;p style=&quot;margin: 0px 0px 0px 4px; font-size: 11px;&quot;&gt;&lt;br&gt;&lt;/p&gt;" style="verticalAlign=top;align=left;overflow=fill;fontSize=11;fontFamily=Helvetica;html=1;whiteSpace=wrap;fillColor=#dae8fc;strokeColor=#6c8ebf;" vertex="1" parent="1">
          <mxGeometry x="-1040" y="720" width="480" height="440" as="geometry" />
        </mxCell>
        <mxCell id="ArM1LGA4sBmxIhtIo9-b-20" style="edgeStyle=orthogonalEdgeStyle;rounded=1;orthogonalLoop=1;jettySize=auto;html=1;exitX=0.5;exitY=0;exitDx=0;exitDy=0;entryX=0.5;entryY=1;entryDx=0;entryDy=0;endArrow=block;endFill=1;" edge="1" parent="1" source="ArM1LGA4sBmxIhtIo9-b-19" target="ArM1LGA4sBmxIhtIo9-b-15">
          <mxGeometry relative="1" as="geometry">
            <Array as="points">
              <mxPoint x="-1320" y="700" />
              <mxPoint x="-800" y="700" />
            </Array>
          </mxGeometry>
        </mxCell>
        <mxCell id="ArM1LGA4sBmxIhtIo9-b-19" value="&lt;p style=&quot;margin: 4px 0px 0px; text-align: center;&quot;&gt;&lt;b&gt;ConsulConfiguration&lt;/b&gt;&lt;br style=&quot;font-size: 11px;&quot;&gt;&lt;/p&gt;&lt;hr style=&quot;font-size: 11px;&quot;&gt;&lt;p style=&quot;margin: 0px 0px 0px 4px; font-size: 11px;&quot;&gt;&lt;b&gt;&lt;font color=&quot;#007fff&quot;&gt;Consul 配置，单例模式&lt;/font&gt;&lt;/b&gt;&lt;/p&gt;&lt;p style=&quot;margin: 0px 0px 0px 4px; font-size: 11px;&quot;&gt;&lt;br&gt;&lt;/p&gt;&lt;p style=&quot;margin: 0px 0px 0px 4px;&quot;&gt;private volatile static ConsulConfiguration &lt;b&gt;instance&lt;/b&gt;;&lt;/p&gt;&lt;p style=&quot;margin: 0px 0px 0px 4px;&quot;&gt;&lt;br&gt;&lt;/p&gt;&lt;p style=&quot;margin: 0px 0px 0px 4px;&quot;&gt;&lt;font color=&quot;#007fff&quot;&gt;&lt;b&gt;// Consul配置服务客户端&lt;/b&gt;&lt;/font&gt;&lt;/p&gt;&lt;p style=&quot;margin: 0px 0px 0px 4px;&quot;&gt;private volatile static ConsulClient client;&lt;/p&gt;&lt;p style=&quot;margin: 0px 0px 0px 4px;&quot;&gt;&lt;br&gt;&lt;/p&gt;&lt;p style=&quot;margin: 0px 0px 0px 4px;&quot;&gt;private static final Logger LOGGER = LoggerFactory.getLogger(ConsulConfiguration.class);&lt;/p&gt;&lt;p style=&quot;margin: 0px 0px 0px 4px;&quot;&gt;private static final Configuration FILE_CONFIG = ConfigurationFactory.CURRENT_FILE_INSTANCE;&lt;/p&gt;&lt;p style=&quot;margin: 0px 0px 0px 4px;&quot;&gt;private static final String SERVER_ADDR_KEY = &quot;serverAddr&quot;;&lt;/p&gt;&lt;p style=&quot;margin: 0px 0px 0px 4px;&quot;&gt;private static final String CONSUL_CONFIG_KEY = &quot;key&quot;;&lt;/p&gt;&lt;p style=&quot;margin: 0px 0px 0px 4px;&quot;&gt;private static final String CONFIG_TYPE = &quot;consul&quot;;&lt;/p&gt;&lt;p style=&quot;margin: 0px 0px 0px 4px;&quot;&gt;private static final String ACL_TOKEN = &quot;aclToken&quot;;&lt;/p&gt;&lt;p style=&quot;margin: 0px 0px 0px 4px;&quot;&gt;private static final String DEFAULT_CONSUL_CONFIG_KEY_VALUE = &quot;seata.properties&quot;;&lt;/p&gt;&lt;p style=&quot;margin: 0px 0px 0px 4px;&quot;&gt;private static final String FILE_CONFIG_KEY_PREFIX = FILE_ROOT_CONFIG + FILE_CONFIG_SPLIT_CHAR + CONFIG_TYPE&lt;/p&gt;&lt;p style=&quot;margin: 0px 0px 0px 4px;&quot;&gt;&amp;nbsp; &amp;nbsp; &amp;nbsp; &amp;nbsp; + FILE_CONFIG_SPLIT_CHAR;&lt;/p&gt;&lt;p style=&quot;margin: 0px 0px 0px 4px;&quot;&gt;private static final int THREAD_POOL_NUM = 1;&lt;/p&gt;&lt;p style=&quot;margin: 0px 0px 0px 4px;&quot;&gt;private static final int MAP_INITIAL_CAPACITY = 8;&lt;/p&gt;&lt;p style=&quot;margin: 0px 0px 0px 4px;&quot;&gt;private ExecutorService consulNotifierExecutor;&lt;/p&gt;&lt;p style=&quot;margin: 0px 0px 0px 4px;&quot;&gt;&lt;font color=&quot;#007fff&quot;&gt;&lt;b&gt;// 一组监听配置变更的监听器&lt;/b&gt;&lt;/font&gt;&lt;/p&gt;&lt;p style=&quot;margin: 0px 0px 0px 4px;&quot;&gt;private static final ConcurrentMap&amp;lt;String, Set&amp;lt;ConfigurationChangeListener&amp;gt;&amp;gt; CONFIG_LISTENERS_MAP&lt;/p&gt;&lt;p style=&quot;margin: 0px 0px 0px 4px;&quot;&gt;&amp;nbsp; &amp;nbsp; &amp;nbsp; &amp;nbsp; = new ConcurrentHashMap&amp;lt;&amp;gt;(MAP_INITIAL_CAPACITY);&lt;/p&gt;&lt;p style=&quot;margin: 0px 0px 0px 4px;&quot;&gt;&lt;font color=&quot;#007fff&quot;&gt;&lt;b&gt;// 其实是缓存&lt;/b&gt;&lt;/font&gt;&lt;/p&gt;&lt;p style=&quot;margin: 0px 0px 0px 4px;&quot;&gt;private static volatile Properties &lt;b&gt;seataConfig&lt;/b&gt; = new Properties();&lt;/p&gt;&lt;p style=&quot;margin: 0px 0px 0px 4px;&quot;&gt;&lt;br&gt;&lt;/p&gt;&lt;p style=&quot;margin: 0px 0px 0px 4px;&quot;&gt;private static final int DEFAULT_WATCH_TIMEOUT = 60;&lt;/p&gt;&lt;p style=&quot;margin: 0px 0px 0px 4px;&quot;&gt;private static final long CAS = 0L;&lt;/p&gt;&lt;hr style=&quot;font-size: 11px;&quot;&gt;&lt;p style=&quot;margin: 0px 0px 0px 4px; font-size: 11px;&quot;&gt;&lt;br&gt;&lt;/p&gt;" style="verticalAlign=top;align=left;overflow=fill;fontSize=11;fontFamily=Helvetica;html=1;whiteSpace=wrap;fillColor=#dae8fc;strokeColor=#6c8ebf;" vertex="1" parent="1">
          <mxGeometry x="-1560" y="720" width="480" height="440" as="geometry" />
        </mxCell>
        <mxCell id="ArM1LGA4sBmxIhtIo9-b-31" value="" style="edgeStyle=orthogonalEdgeStyle;rounded=1;orthogonalLoop=1;jettySize=auto;html=1;" edge="1" parent="1" source="ArM1LGA4sBmxIhtIo9-b-21" target="ArM1LGA4sBmxIhtIo9-b-30">
          <mxGeometry relative="1" as="geometry" />
        </mxCell>
        <mxCell id="ArM1LGA4sBmxIhtIo9-b-21" value="&lt;div style=&quot;&quot;&gt;&lt;font color=&quot;#007fff&quot;&gt;// Seata spring autoconfigure 中唯一定义了一个 &lt;b&gt;SpringBootConfigurationProvider&lt;/b&gt;&lt;br&gt;&lt;/font&gt;&lt;/div&gt;&lt;div style=&quot;&quot;&gt;return &lt;b&gt;InnerEnhancedServiceLoader&lt;/b&gt;.&lt;b&gt;getServiceLoader&lt;/b&gt;(service)&lt;br&gt;&amp;nbsp; &amp;nbsp; .&lt;b&gt;load&lt;/b&gt;(findClassLoader());&lt;br&gt;&lt;/div&gt;" style="rounded=1;whiteSpace=wrap;html=1;align=left;arcSize=10;fontSize=11;" vertex="1" parent="1">
          <mxGeometry x="1240.5" y="170" width="440" height="60" as="geometry" />
        </mxCell>
        <mxCell id="ArM1LGA4sBmxIhtIo9-b-26" style="edgeStyle=orthogonalEdgeStyle;rounded=1;orthogonalLoop=1;jettySize=auto;html=1;exitX=0;exitY=0.5;exitDx=0;exitDy=0;endArrow=open;endFill=0;" edge="1" parent="1" source="ArM1LGA4sBmxIhtIo9-b-23" target="ArM1LGA4sBmxIhtIo9-b-24">
          <mxGeometry relative="1" as="geometry" />
        </mxCell>
        <mxCell id="ArM1LGA4sBmxIhtIo9-b-23" value="&lt;p style=&quot;margin: 4px 0px 0px; text-align: center;&quot;&gt;&lt;b&gt;EnhancedServiceLoader&lt;/b&gt;&lt;br style=&quot;font-size: 11px;&quot;&gt;&lt;/p&gt;&lt;hr style=&quot;font-size: 11px;&quot;&gt;&lt;p style=&quot;margin: 0px 0px 0px 4px; font-size: 11px;&quot;&gt;&lt;font color=&quot;#007fff&quot;&gt;&lt;b&gt;Service 加载器, 内部包括一组 ServiceLoader, 内部不是 SPI 加载而是类加载&lt;/b&gt;&lt;/font&gt;&lt;/p&gt;&lt;p style=&quot;margin: 0px 0px 0px 4px; font-size: 11px;&quot;&gt;&lt;font color=&quot;#007fff&quot;&gt;&lt;b&gt;&lt;br&gt;&lt;/b&gt;&lt;/font&gt;&lt;/p&gt;&lt;p style=&quot;margin: 0px 0px 0px 4px; font-size: 11px;&quot;&gt;&lt;font color=&quot;#007fff&quot;&gt;&lt;b&gt;// Class -&amp;gt; InnerEnhancedServiceLoader&amp;nbsp;&amp;nbsp;&lt;/b&gt;&lt;/font&gt;&lt;/p&gt;&lt;p style=&quot;margin: 0px 0px 0px 4px;&quot;&gt;private static final ConcurrentMap&amp;lt;&lt;b&gt;Class&amp;lt;?&amp;gt;&lt;/b&gt;, &lt;b&gt;InnerEnhancedServiceLoader&amp;lt;?&amp;gt;&lt;/b&gt;&amp;gt; &lt;br&gt;&amp;nbsp; &amp;nbsp; SERVICE_LOADERS =&amp;nbsp;&lt;span style=&quot;background-color: initial;&quot;&gt;new ConcurrentHashMap&amp;lt;&amp;gt;();&lt;/span&gt;&lt;/p&gt;&lt;hr style=&quot;font-size: 11px;&quot;&gt;&lt;p style=&quot;margin: 0px 0px 0px 4px; font-size: 11px;&quot;&gt;&lt;br&gt;&lt;/p&gt;" style="verticalAlign=top;align=left;overflow=fill;fontSize=11;fontFamily=Helvetica;html=1;whiteSpace=wrap;fillColor=#fff2cc;strokeColor=#d6b656;" vertex="1" parent="1">
          <mxGeometry x="-1040" y="120" width="480" height="160" as="geometry" />
        </mxCell>
        <mxCell id="ArM1LGA4sBmxIhtIo9-b-24" value="&lt;p style=&quot;margin: 4px 0px 0px; text-align: center;&quot;&gt;EnhancedServiceLoader$&lt;b style=&quot;background-color: initial;&quot;&gt;InnerEnhancedServiceLoader&lt;/b&gt;&lt;/p&gt;&lt;hr style=&quot;font-size: 11px;&quot;&gt;&lt;p style=&quot;margin: 0px 0px 0px 4px; font-size: 11px;&quot;&gt;&lt;font color=&quot;#007fff&quot;&gt;&lt;b&gt;针对某个 ConfigurationProvider 类型的 ServiceLoader&lt;/b&gt;&lt;/font&gt;&lt;/p&gt;&lt;p style=&quot;margin: 0px 0px 0px 4px; font-size: 11px;&quot;&gt;&lt;font color=&quot;#007fff&quot;&gt;&lt;b&gt;&lt;br&gt;&lt;/b&gt;&lt;/font&gt;&lt;/p&gt;&lt;p style=&quot;margin: 0px 0px 0px 4px; font-size: 11px;&quot;&gt;&lt;span style=&quot;background-color: initial;&quot;&gt;private static final String &lt;b&gt;SERVICES_DIRECTORY&lt;/b&gt; = &quot;META-INF/services/&quot;;&lt;/span&gt;&lt;br&gt;&lt;/p&gt;&lt;p style=&quot;margin: 0px 0px 0px 4px;&quot;&gt;private static final String &lt;b&gt;SEATA_DIRECTORY&lt;/b&gt; = &quot;META-INF/seata/&quot;;&lt;/p&gt;&lt;p style=&quot;margin: 0px 0px 0px 4px;&quot;&gt;&lt;font color=&quot;#007fff&quot;&gt;// 加载的 ConfigurationProvider&amp;nbsp;&lt;/font&gt;&lt;font color=&quot;#007fff&quot;&gt;类型， 比如 ExtConfigurationProvider&lt;/font&gt;&lt;/p&gt;&lt;p style=&quot;margin: 0px 0px 0px 4px;&quot;&gt;private final Class&amp;lt;S&amp;gt; &lt;b&gt;type&lt;/b&gt;;&lt;/p&gt;&lt;p style=&quot;margin: 0px 0px 0px 4px;&quot;&gt;private final Holder&amp;lt;List&amp;lt;&lt;b&gt;ExtensionDefinition&lt;/b&gt;&amp;lt;S&amp;gt;&amp;gt;&amp;gt; &lt;b&gt;definitionsHolder&lt;/b&gt; = new Holder&amp;lt;&amp;gt;();&lt;/p&gt;&lt;p style=&quot;margin: 0px 0px 0px 4px;&quot;&gt;private final ConcurrentMap&amp;lt;ExtensionDefinition&amp;lt;S&amp;gt;, Holder&amp;lt;Object&amp;gt;&amp;gt; &lt;br&gt;&lt;b&gt;&amp;nbsp; &amp;nbsp; definitionToInstanceMap&amp;nbsp;&lt;/b&gt;=&amp;nbsp;&lt;span style=&quot;background-color: initial;&quot;&gt;new ConcurrentHashMap&amp;lt;&amp;gt;();&lt;/span&gt;&lt;/p&gt;&lt;p style=&quot;margin: 0px 0px 0px 4px;&quot;&gt;private final ConcurrentMap&amp;lt;String, List&amp;lt;ExtensionDefinition&amp;lt;S&amp;gt;&amp;gt;&amp;gt; &lt;b&gt;nameToDefinitionsMap&lt;/b&gt; = &lt;br&gt;&amp;nbsp; &amp;nbsp; new ConcurrentHashMap&amp;lt;&amp;gt;();&lt;/p&gt;&lt;p style=&quot;margin: 0px 0px 0px 4px;&quot;&gt;private final ConcurrentMap&amp;lt;Class&amp;lt;?&amp;gt;, ExtensionDefinition&amp;lt;S&amp;gt;&amp;gt; &lt;b&gt;classToDefinitionMap&lt;/b&gt; = &lt;br&gt;&amp;nbsp; &amp;nbsp; new ConcurrentHashMap&amp;lt;&amp;gt;();&lt;/p&gt;&lt;hr style=&quot;font-size: 11px;&quot;&gt;&lt;p style=&quot;margin: 0px 0px 0px 4px; font-size: 11px;&quot;&gt;&lt;br&gt;&lt;/p&gt;" style="verticalAlign=top;align=left;overflow=fill;fontSize=11;fontFamily=Helvetica;html=1;whiteSpace=wrap;" vertex="1" parent="1">
          <mxGeometry x="-1560" y="120" width="480" height="240" as="geometry" />
        </mxCell>
        <mxCell id="ArM1LGA4sBmxIhtIo9-b-25" value="&lt;p style=&quot;margin: 4px 0px 0px; text-align: center;&quot;&gt;&lt;b&gt;ExtConfigurationProvider&lt;/b&gt;&lt;br style=&quot;font-size: 11px;&quot;&gt;&lt;/p&gt;&lt;hr style=&quot;font-size: 11px;&quot;&gt;&lt;p style=&quot;margin: 0px 0px 0px 4px; font-size: 11px;&quot;&gt;&lt;br&gt;&lt;/p&gt;&lt;p style=&quot;margin: 0px 0px 0px 4px;&quot;&gt;Configuration provide(Configuration originalConfiguration);&lt;br&gt;&lt;/p&gt;" style="verticalAlign=top;align=left;overflow=fill;fontSize=11;fontFamily=Helvetica;html=1;whiteSpace=wrap;fillColor=#d5e8d4;strokeColor=#82b366;" vertex="1" parent="1">
          <mxGeometry x="-520" y="480" width="480" height="80" as="geometry" />
        </mxCell>
        <mxCell id="ArM1LGA4sBmxIhtIo9-b-28" style="edgeStyle=orthogonalEdgeStyle;rounded=1;orthogonalLoop=1;jettySize=auto;html=1;exitX=0.5;exitY=0;exitDx=0;exitDy=0;endArrow=block;endFill=1;dashed=1;" edge="1" parent="1" source="ArM1LGA4sBmxIhtIo9-b-27" target="ArM1LGA4sBmxIhtIo9-b-25">
          <mxGeometry relative="1" as="geometry" />
        </mxCell>
        <mxCell id="ArM1LGA4sBmxIhtIo9-b-27" value="&lt;p style=&quot;margin: 4px 0px 0px; text-align: center;&quot;&gt;&lt;b&gt;SpringBootConfigurationProvider&lt;/b&gt;&lt;br style=&quot;font-size: 11px;&quot;&gt;&lt;/p&gt;&lt;hr style=&quot;font-size: 11px;&quot;&gt;&lt;p style=&quot;margin: 0px 0px 0px 4px; font-size: 11px;&quot;&gt;&lt;b&gt;&lt;font color=&quot;#007fff&quot;&gt;这个类也是为了支持基于文件的配置&lt;/font&gt;&lt;/b&gt;&lt;/p&gt;&lt;p style=&quot;margin: 0px 0px 0px 4px; font-size: 11px;&quot;&gt;&lt;br&gt;&lt;/p&gt;&lt;p style=&quot;margin: 0px 0px 0px 4px;&quot;&gt;private static final String INTERCEPT_METHOD_PREFIX = &quot;get&quot;;&lt;/p&gt;&lt;p style=&quot;margin: 0px 0px 0px 4px;&quot;&gt;private static final Map&amp;lt;String, Object&amp;gt; &lt;b&gt;PROPERTY_BEAN_INSTANCE_MAP&lt;/b&gt; = new ConcurrentHashMap&amp;lt;&amp;gt;(64);&lt;/p&gt;&lt;hr style=&quot;font-size: 11px;&quot;&gt;&lt;p style=&quot;margin: 0px 0px 0px 4px; font-size: 11px;&quot;&gt;&lt;br&gt;&lt;/p&gt;" style="verticalAlign=top;align=left;overflow=fill;fontSize=11;fontFamily=Helvetica;html=1;whiteSpace=wrap;" vertex="1" parent="1">
          <mxGeometry x="-520" y="600" width="480" height="160" as="geometry" />
        </mxCell>
        <mxCell id="ArM1LGA4sBmxIhtIo9-b-29" value="&lt;div style=&quot;&quot;&gt;&lt;font color=&quot;#007fff&quot;&gt;&lt;b&gt;// 生成了一个 Configuation 动态代理类，拦截getter方法，返回配置项的值，也是为了支持文件中的配置&lt;br&gt;&lt;/b&gt;&lt;/font&gt;&lt;div&gt;public Configuration provide(Configuration originalConfiguration) {&lt;/div&gt;&lt;div&gt;&amp;nbsp; &amp;nbsp; return (Configuration)Enhancer.create(originalConfiguration.getClass(),&lt;/div&gt;&lt;div&gt;&amp;nbsp; &amp;nbsp; &amp;nbsp; &amp;nbsp; (MethodInterceptor)(proxy, method, args, methodProxy) -&amp;gt; {&lt;/div&gt;&lt;div&gt;&amp;nbsp; &amp;nbsp; &amp;nbsp; &amp;nbsp; &amp;nbsp; &amp;nbsp; if (method.getName().startsWith(INTERCEPT_METHOD_PREFIX) &amp;amp;&amp;amp; args.length &amp;gt; 0) {&lt;/div&gt;&lt;div&gt;&amp;nbsp; &amp;nbsp; &amp;nbsp; &amp;nbsp; &amp;nbsp; &amp;nbsp; &amp;nbsp; &amp;nbsp; Object result;&lt;/div&gt;&lt;div&gt;&amp;nbsp; &amp;nbsp; &amp;nbsp; &amp;nbsp; &amp;nbsp; &amp;nbsp; &amp;nbsp; &amp;nbsp; String rawDataId = (String)args[0];&lt;/div&gt;&lt;div&gt;&amp;nbsp; &amp;nbsp; &amp;nbsp; &amp;nbsp; &amp;nbsp; &amp;nbsp; &amp;nbsp; &amp;nbsp; Class&amp;lt;?&amp;gt; dataType = ReflectionUtil.getWrappedClass(method.getReturnType());&lt;/div&gt;&lt;div&gt;&amp;nbsp; &amp;nbsp; &amp;nbsp; &amp;nbsp; &amp;nbsp; &amp;nbsp; &amp;nbsp; &amp;nbsp; // 1. Get config value from the system property&lt;/div&gt;&lt;div&gt;&amp;nbsp; &amp;nbsp; &amp;nbsp; &amp;nbsp; &amp;nbsp; &amp;nbsp; &amp;nbsp; &amp;nbsp; result = originalConfiguration.getConfigFromSys(rawDataId);&lt;/div&gt;&lt;div&gt;&lt;br&gt;&lt;/div&gt;&lt;div&gt;&amp;nbsp; &amp;nbsp; &amp;nbsp; &amp;nbsp; &amp;nbsp; &amp;nbsp; &amp;nbsp; &amp;nbsp; if (result == null) {&lt;/div&gt;&lt;div&gt;&amp;nbsp; &amp;nbsp; &amp;nbsp; &amp;nbsp; &amp;nbsp; &amp;nbsp; &amp;nbsp; &amp;nbsp; &amp;nbsp; &amp;nbsp; String dataId = convertDataId(rawDataId);&lt;/div&gt;&lt;div&gt;&amp;nbsp; &amp;nbsp; &amp;nbsp; &amp;nbsp; &amp;nbsp; &amp;nbsp; &amp;nbsp; &amp;nbsp; &amp;nbsp; &amp;nbsp; // 2. Get config value from the springboot environment&lt;/div&gt;&lt;div&gt;&amp;nbsp; &amp;nbsp; &amp;nbsp; &amp;nbsp; &amp;nbsp; &amp;nbsp; &amp;nbsp; &amp;nbsp; &amp;nbsp; &amp;nbsp; result = getConfigFromEnvironment(dataId, dataType);&lt;/div&gt;&lt;div&gt;&amp;nbsp; &amp;nbsp; &amp;nbsp; &amp;nbsp; &amp;nbsp; &amp;nbsp; &amp;nbsp; &amp;nbsp; &amp;nbsp; &amp;nbsp; if (result != null) {&lt;/div&gt;&lt;div&gt;&amp;nbsp; &amp;nbsp; &amp;nbsp; &amp;nbsp; &amp;nbsp; &amp;nbsp; &amp;nbsp; &amp;nbsp; &amp;nbsp; &amp;nbsp; &amp;nbsp; &amp;nbsp; return result;&lt;/div&gt;&lt;div&gt;&amp;nbsp; &amp;nbsp; &amp;nbsp; &amp;nbsp; &amp;nbsp; &amp;nbsp; &amp;nbsp; &amp;nbsp; &amp;nbsp; &amp;nbsp; }&lt;/div&gt;&lt;div&gt;&amp;nbsp; &amp;nbsp; &amp;nbsp; &amp;nbsp; &amp;nbsp; &amp;nbsp; &amp;nbsp; &amp;nbsp; &amp;nbsp; &amp;nbsp; // 3. Get config defaultValue from the arguments&lt;/div&gt;&lt;div&gt;&amp;nbsp; &amp;nbsp; &amp;nbsp; &amp;nbsp; &amp;nbsp; &amp;nbsp; &amp;nbsp; &amp;nbsp; &amp;nbsp; &amp;nbsp; if (args.length &amp;gt; 1) {&lt;/div&gt;&lt;div&gt;&amp;nbsp; &amp;nbsp; &amp;nbsp; &amp;nbsp; &amp;nbsp; &amp;nbsp; &amp;nbsp; &amp;nbsp; &amp;nbsp; &amp;nbsp; &amp;nbsp; &amp;nbsp; result = args[1];&lt;/div&gt;&lt;div&gt;&amp;nbsp; &amp;nbsp; &amp;nbsp; &amp;nbsp; &amp;nbsp; &amp;nbsp; &amp;nbsp; &amp;nbsp; &amp;nbsp; &amp;nbsp; &amp;nbsp; &amp;nbsp; if (result != null) {&lt;/div&gt;&lt;div&gt;&amp;nbsp; &amp;nbsp; &amp;nbsp; &amp;nbsp; &amp;nbsp; &amp;nbsp; &amp;nbsp; &amp;nbsp; &amp;nbsp; &amp;nbsp; &amp;nbsp; &amp;nbsp; &amp;nbsp; &amp;nbsp; // See Configuration#getConfig(String dataId, long timeoutMills)&lt;/div&gt;&lt;div&gt;&amp;nbsp; &amp;nbsp; &amp;nbsp; &amp;nbsp; &amp;nbsp; &amp;nbsp; &amp;nbsp; &amp;nbsp; &amp;nbsp; &amp;nbsp; &amp;nbsp; &amp;nbsp; &amp;nbsp; &amp;nbsp; if (dataType.isAssignableFrom(result.getClass())) {&lt;/div&gt;&lt;div&gt;&amp;nbsp; &amp;nbsp; &amp;nbsp; &amp;nbsp; &amp;nbsp; &amp;nbsp; &amp;nbsp; &amp;nbsp; &amp;nbsp; &amp;nbsp; &amp;nbsp; &amp;nbsp; &amp;nbsp; &amp;nbsp; &amp;nbsp; &amp;nbsp; return result;&lt;/div&gt;&lt;div&gt;&amp;nbsp; &amp;nbsp; &amp;nbsp; &amp;nbsp; &amp;nbsp; &amp;nbsp; &amp;nbsp; &amp;nbsp; &amp;nbsp; &amp;nbsp; &amp;nbsp; &amp;nbsp; &amp;nbsp; &amp;nbsp; } else {&lt;/div&gt;&lt;div&gt;&amp;nbsp; &amp;nbsp; &amp;nbsp; &amp;nbsp; &amp;nbsp; &amp;nbsp; &amp;nbsp; &amp;nbsp; &amp;nbsp; &amp;nbsp; &amp;nbsp; &amp;nbsp; &amp;nbsp; &amp;nbsp; &amp;nbsp; &amp;nbsp; result = null;&lt;/div&gt;&lt;div&gt;&amp;nbsp; &amp;nbsp; &amp;nbsp; &amp;nbsp; &amp;nbsp; &amp;nbsp; &amp;nbsp; &amp;nbsp; &amp;nbsp; &amp;nbsp; &amp;nbsp; &amp;nbsp; &amp;nbsp; &amp;nbsp; }&lt;/div&gt;&lt;div&gt;&amp;nbsp; &amp;nbsp; &amp;nbsp; &amp;nbsp; &amp;nbsp; &amp;nbsp; &amp;nbsp; &amp;nbsp; &amp;nbsp; &amp;nbsp; &amp;nbsp; &amp;nbsp; }&lt;/div&gt;&lt;div&gt;&amp;nbsp; &amp;nbsp; &amp;nbsp; &amp;nbsp; &amp;nbsp; &amp;nbsp; &amp;nbsp; &amp;nbsp; &amp;nbsp; &amp;nbsp; }&lt;/div&gt;&lt;div&gt;&amp;nbsp; &amp;nbsp; &amp;nbsp; &amp;nbsp; &amp;nbsp; &amp;nbsp; &amp;nbsp; &amp;nbsp; &amp;nbsp; &amp;nbsp; // 4. Get config defaultValue from the property object&lt;/div&gt;&lt;div&gt;&amp;nbsp; &amp;nbsp; &amp;nbsp; &amp;nbsp; &amp;nbsp; &amp;nbsp; &amp;nbsp; &amp;nbsp; &amp;nbsp; &amp;nbsp; try {&lt;/div&gt;&lt;div&gt;&amp;nbsp; &amp;nbsp; &amp;nbsp; &amp;nbsp; &amp;nbsp; &amp;nbsp; &amp;nbsp; &amp;nbsp; &amp;nbsp; &amp;nbsp; &amp;nbsp; &amp;nbsp; result = getDefaultValueFromPropertyObject(dataId);&lt;/div&gt;&lt;div&gt;&amp;nbsp; &amp;nbsp; &amp;nbsp; &amp;nbsp; &amp;nbsp; &amp;nbsp; &amp;nbsp; &amp;nbsp; &amp;nbsp; &amp;nbsp; } catch (Throwable t) {&lt;/div&gt;&lt;div&gt;&amp;nbsp; &amp;nbsp; &amp;nbsp; &amp;nbsp; &amp;nbsp; &amp;nbsp; &amp;nbsp; &amp;nbsp; &amp;nbsp; &amp;nbsp; &amp;nbsp; &amp;nbsp; LOGGER.error(&quot;Get config &#39;{}&#39; default value from the property object failed:&quot;, dataId, t);&lt;/div&gt;&lt;div&gt;&amp;nbsp; &amp;nbsp; &amp;nbsp; &amp;nbsp; &amp;nbsp; &amp;nbsp; &amp;nbsp; &amp;nbsp; &amp;nbsp; &amp;nbsp; }&lt;/div&gt;&lt;div&gt;&amp;nbsp; &amp;nbsp; &amp;nbsp; &amp;nbsp; &amp;nbsp; &amp;nbsp; &amp;nbsp; &amp;nbsp; }&lt;/div&gt;&lt;div&gt;&amp;nbsp; &amp;nbsp; &amp;nbsp; &amp;nbsp; &amp;nbsp; &amp;nbsp; &amp;nbsp; &amp;nbsp; if (result != null) {&lt;/div&gt;&lt;div&gt;&amp;nbsp; &amp;nbsp; &amp;nbsp; &amp;nbsp; &amp;nbsp; &amp;nbsp; &amp;nbsp; &amp;nbsp; &amp;nbsp; &amp;nbsp; if (dataType.isAssignableFrom(result.getClass())) {&lt;/div&gt;&lt;div&gt;&amp;nbsp; &amp;nbsp; &amp;nbsp; &amp;nbsp; &amp;nbsp; &amp;nbsp; &amp;nbsp; &amp;nbsp; &amp;nbsp; &amp;nbsp; &amp;nbsp; &amp;nbsp; return result;&lt;/div&gt;&lt;div&gt;&amp;nbsp; &amp;nbsp; &amp;nbsp; &amp;nbsp; &amp;nbsp; &amp;nbsp; &amp;nbsp; &amp;nbsp; &amp;nbsp; &amp;nbsp; }&lt;/div&gt;&lt;div&gt;&amp;nbsp; &amp;nbsp; &amp;nbsp; &amp;nbsp; &amp;nbsp; &amp;nbsp; &amp;nbsp; &amp;nbsp; &amp;nbsp; &amp;nbsp; // Convert type&lt;/div&gt;&lt;div&gt;&amp;nbsp; &amp;nbsp; &amp;nbsp; &amp;nbsp; &amp;nbsp; &amp;nbsp; &amp;nbsp; &amp;nbsp; &amp;nbsp; &amp;nbsp; return this.convertType(result, dataType);&lt;/div&gt;&lt;div&gt;&amp;nbsp; &amp;nbsp; &amp;nbsp; &amp;nbsp; &amp;nbsp; &amp;nbsp; &amp;nbsp; &amp;nbsp; }&lt;/div&gt;&lt;div&gt;&amp;nbsp; &amp;nbsp; &amp;nbsp; &amp;nbsp; &amp;nbsp; &amp;nbsp; }&lt;/div&gt;&lt;div&gt;&amp;nbsp; &amp;nbsp; &amp;nbsp; &amp;nbsp; &amp;nbsp; &amp;nbsp; return method.invoke(originalConfiguration, args);&lt;/div&gt;&lt;div&gt;&amp;nbsp; &amp;nbsp; &amp;nbsp; &amp;nbsp; });&lt;/div&gt;&lt;div&gt;}&lt;/div&gt;&lt;/div&gt;" style="rounded=1;whiteSpace=wrap;html=1;align=left;arcSize=1;fontSize=11;" vertex="1" parent="1">
          <mxGeometry x="1241" y="280" width="440" height="720" as="geometry" />
        </mxCell>
        <mxCell id="ArM1LGA4sBmxIhtIo9-b-30" value="&lt;div style=&quot;&quot;&gt;&lt;font color=&quot;#007fff&quot;&gt;// 这里面的实现根本不是使用SPI加载而是直接类加载&lt;br&gt;&lt;/font&gt;&lt;/div&gt;&lt;div style=&quot;&quot;&gt;return &lt;b&gt;loadExtension&lt;/b&gt;(loader, null, null);&lt;br&gt;&lt;/div&gt;" style="rounded=1;whiteSpace=wrap;html=1;align=left;arcSize=10;fontSize=11;" vertex="1" parent="1">
          <mxGeometry x="1720" y="170" width="440" height="60" as="geometry" />
        </mxCell>
        <mxCell id="ArM1LGA4sBmxIhtIo9-b-33" value="SpringBootConfigurationProvider" style="text;html=1;align=center;verticalAlign=middle;resizable=0;points=[];autosize=1;strokeColor=none;fillColor=none;" vertex="1" parent="1">
          <mxGeometry x="1360.5" y="250" width="200" height="30" as="geometry" />
        </mxCell>
        <mxCell id="ArM1LGA4sBmxIhtIo9-b-38" style="edgeStyle=orthogonalEdgeStyle;rounded=1;orthogonalLoop=1;jettySize=auto;html=1;exitX=1;exitY=0.5;exitDx=0;exitDy=0;entryX=0;entryY=0.5;entryDx=0;entryDy=0;" edge="1" parent="1" source="ArM1LGA4sBmxIhtIo9-b-34" target="ArM1LGA4sBmxIhtIo9-b-37">
          <mxGeometry relative="1" as="geometry" />
        </mxCell>
        <mxCell id="ArM1LGA4sBmxIhtIo9-b-42" style="edgeStyle=orthogonalEdgeStyle;rounded=1;orthogonalLoop=1;jettySize=auto;html=1;exitX=1;exitY=0.5;exitDx=0;exitDy=0;entryX=0;entryY=0.5;entryDx=0;entryDy=0;" edge="1" parent="1" source="ArM1LGA4sBmxIhtIo9-b-34" target="ArM1LGA4sBmxIhtIo9-b-41">
          <mxGeometry relative="1" as="geometry">
            <Array as="points">
              <mxPoint x="980" y="680" />
              <mxPoint x="980" y="1000" />
              <mxPoint x="260" y="1000" />
              <mxPoint x="260" y="1150" />
            </Array>
          </mxGeometry>
        </mxCell>
        <mxCell id="ArM1LGA4sBmxIhtIo9-b-34" value="&lt;div style=&quot;font-size: 11px;&quot;&gt;private static Configuration buildConfiguration() {&lt;/div&gt;&lt;div style=&quot;font-size: 11px;&quot;&gt;&lt;b&gt;&lt;font color=&quot;#007fff&quot;&gt;&amp;nbsp; &amp;nbsp; // 从配置文件中读取 config.type&lt;/font&gt;&lt;/b&gt;&lt;/div&gt;&lt;div style=&quot;font-size: 11px;&quot;&gt;&amp;nbsp; &amp;nbsp; ConfigType configType = &lt;b&gt;getConfigType&lt;/b&gt;();&lt;/div&gt;&lt;div style=&quot;font-size: 11px;&quot;&gt;&amp;nbsp; &amp;nbsp; Configuration &lt;b&gt;extConfiguration&lt;/b&gt; = null;&lt;/div&gt;&lt;div style=&quot;font-size: 11px;&quot;&gt;&amp;nbsp; &amp;nbsp; Configuration &lt;b&gt;configuration&lt;/b&gt; = ORIGIN_FILE_INSTANCE;&lt;/div&gt;&lt;div style=&quot;font-size: 11px;&quot;&gt;&amp;nbsp; &amp;nbsp; if (&lt;b&gt;configuration&lt;/b&gt; != null) { &lt;b&gt;&lt;font color=&quot;#007fff&quot;&gt;// 当配置类型为 File 时 configuration != null&lt;/font&gt;&lt;/b&gt;&lt;/div&gt;&lt;div style=&quot;font-size: 11px;&quot;&gt;&amp;nbsp; &amp;nbsp; &amp;nbsp; &amp;nbsp; try {&lt;/div&gt;&lt;div style=&quot;font-size: 11px;&quot;&gt;&amp;nbsp; &amp;nbsp; &amp;nbsp; &amp;nbsp; &amp;nbsp; &amp;nbsp; &lt;b&gt;extConfiguration&lt;/b&gt; = EnhancedServiceLoader.&lt;b&gt;load&lt;/b&gt;(&lt;br&gt;&lt;b&gt;&lt;span style=&quot;white-space: pre;&quot;&gt;&#x9;&lt;/span&gt;&lt;span style=&quot;white-space: pre;&quot;&gt;&#x9;&lt;/span&gt;&amp;nbsp; &amp;nbsp; ExtConfigurationProvider&lt;/b&gt;.class)&lt;br&gt;&lt;span style=&quot;white-space: pre;&quot;&gt;&#x9;&lt;/span&gt;&lt;span style=&quot;white-space: pre;&quot;&gt;&#x9;&lt;/span&gt;.&lt;b&gt;provide&lt;/b&gt;(configuration);&lt;/div&gt;&lt;div style=&quot;font-size: 11px;&quot;&gt;&amp;nbsp; &amp;nbsp; &amp;nbsp; &amp;nbsp; &amp;nbsp; &amp;nbsp; if (LOGGER.isInfoEnabled()) {&lt;/div&gt;&lt;div style=&quot;font-size: 11px;&quot;&gt;&amp;nbsp; &amp;nbsp; &amp;nbsp; &amp;nbsp; &amp;nbsp; &amp;nbsp; &amp;nbsp; &amp;nbsp; LOGGER.info(&quot;load Configuration from :{}&quot;,&lt;/div&gt;&lt;div style=&quot;font-size: 11px;&quot;&gt;&amp;nbsp; &amp;nbsp; &amp;nbsp; &amp;nbsp; &amp;nbsp; &amp;nbsp; &amp;nbsp; &amp;nbsp; &amp;nbsp; &amp;nbsp; extConfiguration == null ? configuration.getClass().getSimpleName() : &lt;br&gt;&lt;span style=&quot;white-space: pre;&quot;&gt;&#x9;&lt;/span&gt;&amp;nbsp; &amp;nbsp; &amp;nbsp; &amp;nbsp; &amp;nbsp; &amp;nbsp; &quot;Spring Configuration&quot;);&lt;/div&gt;&lt;div style=&quot;font-size: 11px;&quot;&gt;&amp;nbsp; &amp;nbsp; &amp;nbsp; &amp;nbsp; &amp;nbsp; &amp;nbsp; }&lt;/div&gt;&lt;div style=&quot;font-size: 11px;&quot;&gt;&amp;nbsp; &amp;nbsp; &amp;nbsp; &amp;nbsp; } catch (EnhancedServiceNotFoundException ignore) {&lt;/div&gt;&lt;div style=&quot;font-size: 11px;&quot;&gt;&amp;nbsp; &amp;nbsp; &amp;nbsp; &amp;nbsp; } catch (Exception e) {&lt;/div&gt;&lt;div style=&quot;font-size: 11px;&quot;&gt;&amp;nbsp; &amp;nbsp; &amp;nbsp; &amp;nbsp; &amp;nbsp; &amp;nbsp; LOGGER.error(&quot;failed to load extConfiguration:{}&quot;, e.getMessage(), e);&lt;/div&gt;&lt;div style=&quot;font-size: 11px;&quot;&gt;&amp;nbsp; &amp;nbsp; &amp;nbsp; &amp;nbsp; }&lt;/div&gt;&lt;div style=&quot;font-size: 11px;&quot;&gt;&amp;nbsp; &amp;nbsp; } else { &lt;b&gt;&lt;font color=&quot;#007fff&quot;&gt;//1 即其他非file配置类型，加载 ConfigurationProvider, 并由它提供 Configuration 实例&lt;/font&gt;&lt;/b&gt;&lt;/div&gt;&lt;div style=&quot;font-size: 11px;&quot;&gt;&amp;nbsp; &amp;nbsp; &amp;nbsp; &amp;nbsp; &lt;b&gt;configuration&lt;/b&gt; = EnhancedServiceLoader&lt;span style=&quot;background-color: initial;&quot;&gt;.&lt;b&gt;load&lt;/b&gt;(&lt;b&gt;ConfigurationProvider&lt;/b&gt;.class, &lt;br&gt;&amp;nbsp; &amp;nbsp; &amp;nbsp; &amp;nbsp; &amp;nbsp; &amp;nbsp; Objects.requireNonNull(&lt;b&gt;configType&lt;/b&gt;).name()).&lt;b&gt;provide&lt;/b&gt;();&lt;/span&gt;&lt;/div&gt;&lt;div style=&quot;font-size: 11px;&quot;&gt;&amp;nbsp; &amp;nbsp; }&lt;/div&gt;&lt;div style=&quot;font-size: 11px;&quot;&gt;&amp;nbsp; &amp;nbsp; try {&lt;/div&gt;&lt;div style=&quot;font-size: 11px;&quot;&gt;&amp;nbsp; &amp;nbsp; &amp;nbsp; &amp;nbsp; Configuration configurationCache;&lt;/div&gt;&lt;div style=&quot;font-size: 11px;&quot;&gt;&amp;nbsp; &amp;nbsp; &amp;nbsp; &amp;nbsp; if (null != extConfiguration) {&lt;/div&gt;&lt;div style=&quot;font-size: 11px;&quot;&gt;&amp;nbsp; &amp;nbsp; &amp;nbsp; &amp;nbsp; &amp;nbsp; &amp;nbsp; configurationCache = ConfigurationCache.getInstance().proxy(extConfiguration);&lt;/div&gt;&lt;div style=&quot;font-size: 11px;&quot;&gt;&amp;nbsp; &amp;nbsp; &amp;nbsp; &amp;nbsp; } else {&lt;/div&gt;&lt;div style=&quot;font-size: 11px;&quot;&gt;&amp;nbsp; &amp;nbsp; &amp;nbsp; &amp;nbsp; &amp;nbsp; &amp;nbsp; configurationCache = ConfigurationCache.getInstance().proxy(configuration);&lt;/div&gt;&lt;div style=&quot;font-size: 11px;&quot;&gt;&amp;nbsp; &amp;nbsp; &amp;nbsp; &amp;nbsp; }&lt;/div&gt;&lt;div style=&quot;font-size: 11px;&quot;&gt;&amp;nbsp; &amp;nbsp; &amp;nbsp; &amp;nbsp; if (null != configurationCache) {&lt;/div&gt;&lt;div style=&quot;font-size: 11px;&quot;&gt;&amp;nbsp; &amp;nbsp; &amp;nbsp; &amp;nbsp; &amp;nbsp; &amp;nbsp; extConfiguration = configurationCache;&lt;/div&gt;&lt;div style=&quot;font-size: 11px;&quot;&gt;&amp;nbsp; &amp;nbsp; &amp;nbsp; &amp;nbsp; }&lt;/div&gt;&lt;div style=&quot;font-size: 11px;&quot;&gt;&amp;nbsp; &amp;nbsp; } catch (EnhancedServiceNotFoundException ignore) {&lt;/div&gt;&lt;div style=&quot;font-size: 11px;&quot;&gt;&amp;nbsp; &amp;nbsp; } catch (Exception e) {&lt;/div&gt;&lt;div style=&quot;font-size: 11px;&quot;&gt;&amp;nbsp; &amp;nbsp; &amp;nbsp; &amp;nbsp; LOGGER.error(&quot;failed to load configurationCacheProvider:{}&quot;, e.getMessage(), e);&lt;/div&gt;&lt;div style=&quot;font-size: 11px;&quot;&gt;&amp;nbsp; &amp;nbsp; }&lt;/div&gt;&lt;div style=&quot;font-size: 11px;&quot;&gt;&lt;font color=&quot;#007fff&quot;&gt;&amp;nbsp; &amp;nbsp; // 优先使用 ExtConfiguration&lt;/font&gt;&lt;/div&gt;&lt;div style=&quot;font-size: 11px;&quot;&gt;&amp;nbsp; &amp;nbsp; return null == extConfiguration ? &lt;b&gt;configuration&lt;/b&gt; : &lt;b&gt;extConfiguration&lt;/b&gt;;&lt;/div&gt;&lt;div style=&quot;font-size: 11px;&quot;&gt;}&lt;/div&gt;" style="rounded=1;whiteSpace=wrap;html=1;align=left;arcSize=1;fontSize=11;fillColor=#fff2cc;strokeColor=#d6b656;" vertex="1" parent="1">
          <mxGeometry x="520" y="400" width="440" height="560" as="geometry" />
        </mxCell>
        <mxCell id="ArM1LGA4sBmxIhtIo9-b-40" value="" style="edgeStyle=orthogonalEdgeStyle;rounded=1;orthogonalLoop=1;jettySize=auto;html=1;" edge="1" parent="1" source="ArM1LGA4sBmxIhtIo9-b-37" target="ArM1LGA4sBmxIhtIo9-b-39">
          <mxGeometry relative="1" as="geometry" />
        </mxCell>
        <mxCell id="ArM1LGA4sBmxIhtIo9-b-37" value="&lt;div style=&quot;&quot;&gt;&lt;span style=&quot;background-color: initial;&quot;&gt;return InnerEnhancedServiceLoader.&lt;/span&gt;&lt;b style=&quot;background-color: initial;&quot;&gt;getServiceLoader&lt;/b&gt;&lt;span style=&quot;background-color: initial;&quot;&gt;(service).&lt;/span&gt;&lt;b style=&quot;background-color: initial;&quot;&gt;load&lt;/b&gt;&lt;span style=&quot;background-color: initial;&quot;&gt;(activateName, findClassLoader());&lt;/span&gt;&lt;br&gt;&lt;/div&gt;" style="rounded=1;whiteSpace=wrap;html=1;align=left;arcSize=10;fontSize=11;" vertex="1" parent="1">
          <mxGeometry x="280" y="1040" width="440" height="60" as="geometry" />
        </mxCell>
        <mxCell id="ArM1LGA4sBmxIhtIo9-b-39" value="&lt;div style=&quot;&quot;&gt;&lt;/div&gt;&lt;font color=&quot;#007fff&quot;&gt;&lt;b&gt;// 加载所有 ConfigurationProvider 并返回 activeName 指定的那个&lt;/b&gt;&lt;/font&gt;&lt;div style=&quot;&quot;&gt;return loadExtension(activateName, loader, null, null);&lt;br&gt;&lt;/div&gt;" style="rounded=1;whiteSpace=wrap;html=1;align=left;arcSize=10;fontSize=11;" vertex="1" parent="1">
          <mxGeometry x="760" y="1040" width="440" height="60" as="geometry" />
        </mxCell>
        <mxCell id="ArM1LGA4sBmxIhtIo9-b-44" value="" style="edgeStyle=orthogonalEdgeStyle;rounded=1;orthogonalLoop=1;jettySize=auto;html=1;" edge="1" parent="1" source="ArM1LGA4sBmxIhtIo9-b-41" target="ArM1LGA4sBmxIhtIo9-b-43">
          <mxGeometry relative="1" as="geometry" />
        </mxCell>
        <mxCell id="ArM1LGA4sBmxIhtIo9-b-48" style="edgeStyle=orthogonalEdgeStyle;rounded=1;orthogonalLoop=1;jettySize=auto;html=1;exitX=1;exitY=0.5;exitDx=0;exitDy=0;entryX=0;entryY=0.5;entryDx=0;entryDy=0;" edge="1" parent="1" source="ArM1LGA4sBmxIhtIo9-b-41" target="ArM1LGA4sBmxIhtIo9-b-47">
          <mxGeometry relative="1" as="geometry" />
        </mxCell>
        <mxCell id="ArM1LGA4sBmxIhtIo9-b-41" value="&lt;div style=&quot;&quot;&gt;&amp;nbsp;ConfigurationProvider 实现&lt;/div&gt;" style="rounded=1;whiteSpace=wrap;html=1;align=center;arcSize=10;fontSize=11;" vertex="1" parent="1">
          <mxGeometry x="280" y="1120" width="200" height="60" as="geometry" />
        </mxCell>
        <mxCell id="ArM1LGA4sBmxIhtIo9-b-46" value="" style="edgeStyle=orthogonalEdgeStyle;rounded=1;orthogonalLoop=1;jettySize=auto;html=1;" edge="1" parent="1" source="ArM1LGA4sBmxIhtIo9-b-43" target="ArM1LGA4sBmxIhtIo9-b-45">
          <mxGeometry relative="1" as="geometry" />
        </mxCell>
        <mxCell id="ArM1LGA4sBmxIhtIo9-b-43" value="&lt;div style=&quot;&quot;&gt;NacosConfigurationProvider#provide()&lt;/div&gt;" style="rounded=1;whiteSpace=wrap;html=1;align=center;arcSize=10;fontSize=11;" vertex="1" parent="1">
          <mxGeometry x="520" y="1120" width="200" height="60" as="geometry" />
        </mxCell>
        <mxCell id="ArM1LGA4sBmxIhtIo9-b-45" value="&lt;div style=&quot;&quot;&gt;return &lt;b&gt;NacosConfiguration&lt;/b&gt;.&lt;b&gt;getInstance&lt;/b&gt;();&lt;/div&gt;" style="rounded=1;whiteSpace=wrap;html=1;align=center;arcSize=10;fontSize=11;" vertex="1" parent="1">
          <mxGeometry x="760" y="1120" width="200" height="60" as="geometry" />
        </mxCell>
        <mxCell id="ArM1LGA4sBmxIhtIo9-b-50" value="" style="edgeStyle=orthogonalEdgeStyle;rounded=1;orthogonalLoop=1;jettySize=auto;html=1;" edge="1" parent="1" source="ArM1LGA4sBmxIhtIo9-b-47" target="ArM1LGA4sBmxIhtIo9-b-49">
          <mxGeometry relative="1" as="geometry" />
        </mxCell>
        <mxCell id="ArM1LGA4sBmxIhtIo9-b-47" value="&lt;div style=&quot;&quot;&gt;ConsulConfigurationProvider#provide()&lt;/div&gt;" style="rounded=1;whiteSpace=wrap;html=1;align=center;arcSize=10;fontSize=11;" vertex="1" parent="1">
          <mxGeometry x="520" y="1200" width="200" height="60" as="geometry" />
        </mxCell>
        <mxCell id="ArM1LGA4sBmxIhtIo9-b-49" value="&lt;div style=&quot;&quot;&gt;&amp;nbsp;return &lt;b&gt;ConsulConfiguration&lt;/b&gt;.&lt;b&gt;getInstance&lt;/b&gt;();&lt;/div&gt;" style="rounded=1;whiteSpace=wrap;html=1;align=center;arcSize=10;fontSize=11;" vertex="1" parent="1">
          <mxGeometry x="760" y="1200" width="200" height="60" as="geometry" />
        </mxCell>
      </root>
    </mxGraphModel>
  </diagram>
</mxfile>
